<?xml version="1.0" standalone="no"?>
<!DOCTYPE svg PUBLIC "-//W3C//DTD SVG 20010904//EN"
 "http://www.w3.org/TR/2001/REC-SVG-20010904/DTD/svg10.dtd">
<svg version="1.0" xmlns="http://www.w3.org/2000/svg"
 width="1080.000000pt" height="1080.000000pt" viewBox="0 0 1080.000000 1080.000000"
 preserveAspectRatio="xMidYMid meet">
<metadata>
Created by potrace 1.14, written by Peter Selinger 2001-2017
</metadata>
<g transform="translate(0.000000,1080.000000) scale(0.100000,-0.100000)"
fill="#000000" stroke="none">
<path d="M4088 8124 c-2 -2 -38 -5 -80 -8 -250 -16 -606 -90 -823 -171 -230
-85 -400 -189 -593 -360 -43 -38 -141 -165 -176 -227 -35 -63 -77 -173 -92
-238 -4 -19 -8 -37 -9 -40 -8 -32 -17 -143 -17 -201 1 -177 69 -337 184 -429
49 -40 160 -95 223 -110 74 -18 254 -21 324 -5 181 43 324 158 407 331 38 79
79 227 89 320 9 84 15 127 21 146 7 24 13 52 30 148 8 47 17 98 20 114 9 47
52 159 81 211 39 70 121 148 194 183 82 40 101 44 236 47 384 10 597 -163 683
-555 17 -81 22 -107 36 -225 13 -117 15 -183 18 -638 l3 -478 -23 -9 c-12 -5
-116 -25 -231 -45 -246 -43 -244 -42 -308 -51 -27 -3 -52 -8 -55 -9 -3 -2 -26
-6 -50 -10 -25 -3 -81 -14 -125 -25 -44 -10 -97 -21 -117 -24 -21 -3 -59 -11
-85 -17 -27 -6 -55 -12 -63 -14 -8 -2 -44 -11 -80 -20 -36 -9 -72 -18 -80 -20
-72 -15 -389 -116 -461 -147 -19 -9 -79 -35 -134 -59 -408 -179 -734 -476
-873 -795 -63 -144 -85 -253 -83 -422 2 -265 64 -492 188 -685 40 -63 181
-214 238 -257 176 -131 431 -238 628 -265 27 -4 59 -9 70 -11 43 -10 373 -12
445 -4 343 41 533 129 844 387 112 94 167 144 281 261 50 50 94 92 98 92 3 0
19 -38 34 -85 49 -151 125 -277 233 -389 126 -130 284 -205 526 -250 74 -13
384 -15 471 -3 29 4 115 19 125 22 3 1 19 5 35 9 133 33 274 112 405 226 56
48 190 196 190 209 0 4 -21 31 -47 59 l-48 52 -143 1 c-79 1 -167 6 -195 11
-170 31 -272 144 -293 325 -4 32 -8 625 -10 1318 -1 693 -4 1274 -7 1290 -2
17 -7 62 -12 100 -9 86 -40 254 -64 342 -75 279 -207 507 -389 677 -50 46
-177 139 -225 165 -261 142 -483 210 -808 247 -52 6 -556 13 -561 8z m758
-3255 l-1 -800 -92 -69 c-243 -181 -429 -279 -583 -306 -25 -5 -97 -8 -160 -8
-312 1 -532 162 -610 447 -28 100 -29 108 -36 207 -30 386 67 685 289 893 103
96 264 197 412 259 56 23 229 75 295 88 83 16 91 17 143 29 26 6 64 14 85 17
20 3 48 7 62 10 14 2 41 7 60 10 19 3 53 10 75 14 22 4 45 8 51 9 7 1 10 -238
10 -800z"/>
<path d="M8329 4706 c-2 -2 -24 -6 -49 -9 -267 -31 -539 -247 -639 -507 -47
-122 -63 -200 -62 -320 0 -265 107 -492 304 -646 167 -131 340 -186 562 -180
135 3 213 21 323 72 101 46 186 109 268 197 155 167 225 353 217 582 -6 186
-58 330 -176 481 -81 105 -222 224 -303 255 -16 5 -42 17 -59 24 -61 28 -163
48 -271 51 -61 2 -113 2 -115 0z"/>
</g>
</svg>
