<?xml version="1.0" standalone="no"?>
<!DOCTYPE svg PUBLIC "-//W3C//DTD SVG 20010904//EN"
 "http://www.w3.org/TR/2001/REC-SVG-20010904/DTD/svg10.dtd">
<svg version="1.0" xmlns="http://www.w3.org/2000/svg"
 width="400.000000pt" height="400.000000pt" viewBox="0 0 400.000000 400.000000"
 preserveAspectRatio="xMidYMid meet">
<metadata>
Created by potrace 1.16, written by Peter Selinger 2001-2019
</metadata>
<g transform="translate(0.000000,400.000000) scale(0.100000,-0.100000)"
fill="#ffffff" stroke="none">
<path d="M1400 3155 c-68 -69 -139 -100 -225 -99 -57 1 -95 10 -210 51 -77 28
-158 57 -180 64 -23 8 -85 14 -145 14 -128 0 -171 -18 -256 -106 -92 -97 -147
-245 -156 -419 -3 -63 -2 -65 22 -68 22 -2 29 7 62 75 50 107 88 154 150 189
l53 29 220 0 c214 0 222 1 294 27 41 15 77 26 79 23 2 -2 -34 -28 -80 -57
-310 -201 -526 -486 -607 -803 -69 -265 -67 -525 3 -731 77 -228 201 -380 381
-468 116 -57 177 -71 300 -69 221 2 396 104 576 335 35 44 71 90 80 102 16 20
17 19 49 -44 100 -199 248 -331 425 -381 30 -8 96 -14 165 -14 133 0 200 18
339 91 116 61 188 115 312 232 l106 101 22 -83 c12 -46 39 -112 59 -146 37
-63 123 -150 180 -183 l31 -17 162 158 162 158 -18 32 c-11 18 -22 32 -25 32
-3 -1 -30 -23 -60 -50 l-55 -50 -17 23 c-10 12 -26 45 -35 72 -16 45 -18 120
-21 791 -3 819 -3 826 59 947 17 34 46 83 65 110 19 26 34 49 34 52 0 19 -59
-6 -140 -60 l-95 -63 -125 123 -125 123 -158 -181 -157 -181 27 -29 28 -29 49
53 49 53 53 -59 54 -60 0 -231 0 -232 -72 -18 c-94 -24 -178 -24 -255 0 l-63
19 0 449 0 448 -40 0 c-22 0 -40 -5 -40 -10 0 -21 -83 -99 -117 -111 -58 -19
-143 -3 -322 58 -145 50 -176 57 -242 57 -186 1 -320 -137 -385 -392 -29 -114
-29 -109 -5 -122 17 -8 22 -4 41 35 12 24 39 62 60 84 83 85 180 110 433 112
78 0 167 4 197 8 57 9 75 5 50 -9 -127 -72 -389 -322 -486 -465 -228 -335
-290 -654 -197 -1010 l26 -99 -97 -93 c-54 -51 -102 -93 -107 -93 -5 0 -9 418
-9 1025 l0 1025 -43 0 c-38 0 -48 -5 -87 -45z m50 -1074 c0 -865 -2 -959 -16
-965 -51 -20 -201 0 -307 40 -65 25 -207 118 -214 140 -2 6 20 27 49 46 115
76 219 199 262 308 43 110 48 165 54 685 7 487 8 501 29 548 21 45 117 157
134 157 5 0 9 -432 9 -959z m1240 -2 l0 -962 -72 6 c-143 10 -305 71 -386 144
l-37 33 25 18 c181 127 264 235 313 405 19 67 21 110 27 587 7 577 6 569 80
673 23 31 43 57 46 57 2 0 4 -433 4 -961z m-1553 714 c-71 -106 -120 -210
-154 -324 -13 -44 -17 -132 -23 -474 -7 -461 -9 -479 -75 -591 l-28 -47 -28
34 c-46 57 -116 199 -143 292 -118 408 78 935 438 1175 43 29 80 51 83 49 2
-2 -30 -54 -70 -114z m1356 105 c-4 -7 -29 -44 -54 -83 -55 -84 -93 -156 -126
-245 -47 -124 -53 -186 -53 -555 0 -364 -7 -441 -49 -539 -24 -56 -58 -106
-72 -106 -14 0 -94 167 -122 256 -130 410 45 943 401 1226 74 59 89 68 75 46z
m667 -859 l0 -181 -27 7 c-82 22 -263 22 -340 -1 l-23 -6 0 169 0 170 58 -8
c59 -8 234 4 287 20 17 5 33 10 38 10 4 1 7 -80 7 -180z m-32 -249 l32 -12 0
-221 0 -222 -73 -47 c-39 -25 -97 -58 -127 -73 -49 -25 -173 -75 -185 -75 -3
0 -5 144 -5 320 l0 319 48 16 c56 18 258 15 310 -5z"/>
</g>
</svg>
